<?xml version="1.0" standalone="no"?>
<!DOCTYPE svg PUBLIC "-//W3C//DTD SVG 20010904//EN"
 "http://www.w3.org/TR/2001/REC-SVG-20010904/DTD/svg10.dtd">
<svg version="1.0" xmlns="http://www.w3.org/2000/svg"
 width="1157.000000pt" height="664.000000pt" viewBox="0 0 1157.000000 664.000000"
 preserveAspectRatio="xMidYMid meet">
<metadata>
Created by potrace 1.16, written by Peter Selinger 2001-2019
</metadata>
<g transform="translate(0.000000,664.000000) scale(0.100000,-0.100000)"
fill="#000000" stroke="none">
<path d="M0 3320 l0 -3320 5785 0 5785 0 0 3320 0 3320 -5785 0 -5785 0 0
-3320z m7918 716 c166 -42 290 -157 321 -296 20 -92 44 -502 38 -655 -10 -225
-38 -298 -161 -412 -103 -96 -134 -103 -43 -10 59 59 93 103 120 157 53 106
65 237 48 555 -21 384 -31 426 -126 521 -79 79 -138 103 -302 121 -117 13
-260 14 -933 9 -437 -4 -816 -9 -842 -13 -40 -5 -48 -3 -48 11 0 11 10 16 33
17 230 10 777 16 1247 14 500 -2 594 -5 648 -19z m2723 -17 c125 -48 216 -136
262 -252 16 -41 21 -82 25 -189 l4 -138 -25 0 c-14 0 -27 -5 -29 -12 -3 -9
-87 -12 -331 -12 l-327 -1 0 24 c0 42 -39 109 -78 133 -37 23 -40 23 -372 22
-471 0 -453 10 -458 -257 -4 -215 2 -268 35 -307 53 -63 55 -64 423 -67 l335
-4 40 23 c40 23 69 67 80 121 4 18 12 27 25 27 10 0 22 5 25 10 7 11 460 12
580 1 l70 -6 3 -69 c5 -106 -12 -219 -42 -279 -70 -143 -211 -237 -396 -263
-115 -15 -1292 -28 -1441 -15 -183 16 -351 117 -416 249 -27 54 -28 66 -34
242 -3 102 -5 286 -4 410 2 235 9 285 55 384 52 115 240 232 400 249 19 2 370
4 780 3 l745 -1 66 -26z m-5141 -209 c0 -201 -1 -210 -19 -210 -25 0 -37 18
-22 33 7 7 11 70 11 183 0 159 -1 173 -18 178 -26 9 -1671 -2 -1702 -10 -14
-4 -22 -4 -19 0 4 4 35 13 70 20 49 10 253 13 882 14 l817 2 0 -210z m-3375
187 c559 -4 558 -4 691 -68 121 -57 189 -162 206 -317 6 -49 8 -234 5 -422 -4
-277 -8 -344 -21 -388 -26 -80 -65 -137 -134 -194 -52 -43 -53 -33 -4 20 52
55 107 164 122 241 13 70 13 702 0 771 -24 126 -99 229 -198 273 -128 58 -186
61 -987 62 -401 0 -750 -3 -775 -7 l-45 -7 45 15 c62 21 193 29 405 27 99 -2
410 -5 690 -6z m3883 -537 c-4 -780 -4 -878 4 -886 10 -10 1667 -12 1786 -2
52 4 103 10 115 13 19 5 18 4 -3 -8 -62 -35 -148 -39 -990 -36 -454 1 -852 3
-885 3 l-60 1 0 190 c2 1066 5 1256 21 1253 13 -3 14 -65 12 -528z m-5173 379
c-47 -53 -81 -126 -95 -209 -7 -42 -10 -191 -8 -425 3 -349 4 -362 26 -417 28
-70 107 -159 165 -187 23 -11 79 -30 124 -41 80 -20 106 -20 850 -18 422 2
777 7 788 11 19 8 19 8 1 -3 -52 -34 -152 -37 -881 -35 -474 2 -736 7 -767 14
-66 15 -153 55 -198 91 -48 38 -96 112 -116 179 -22 75 -32 344 -24 613 10
305 26 359 125 438 51 41 54 38 10 -11z m2700 0 c-148 -164 -134 -493 28 -620
135 -107 150 -109 757 -119 487 -8 552 -12 586 -41 22 -18 17 -74 -10 -106
-32 -37 -44 -23 -17 21 29 46 16 73 -37 81 -20 3 -46 8 -57 11 -11 3 -245 9
-520 13 -465 7 -504 9 -562 28 -204 67 -299 209 -297 443 1 138 24 203 100
278 64 62 82 69 29 11z m3923 -194 c80 -6 112 -28 148 -101 27 -55 28 -61 28
-243 1 -176 0 -189 -23 -239 -24 -54 -61 -92 -89 -92 -11 0 -7 10 15 33 64 68
68 83 68 292 0 175 -2 193 -22 230 -45 85 -47 86 -270 97 -109 5 -301 7 -428
4 -224 -6 -275 -3 -275 15 0 14 657 18 848 4z m-2039 -27 c2 -6 -213 -9 -637
-6 -352 1 -638 5 -636 8 13 13 177 15 704 12 365 -2 566 -7 569 -14z m-3166
-14 c54 -19 114 -78 127 -124 13 -46 12 -362 -1 -420 -13 -58 -48 -110 -90
-134 l-34 -19 27 29 c14 16 37 49 50 74 22 43 23 54 23 256 l0 211 -29 37
c-16 21 -50 48 -75 60 -44 20 -60 21 -413 21 -249 0 -361 3 -350 10 19 11 485
24 630 18 51 -2 112 -11 135 -19z m4390 -221 c4 -120 7 -259 7 -309 l0 -92
163 -7 c196 -9 635 -2 661 10 14 6 17 5 12 -3 -17 -28 -86 -35 -386 -37 -168
-1 -344 0 -391 2 l-86 4 -8 263 c-3 145 -7 269 -7 277 -4 61 3 109 15 109 11
0 15 -46 20 -217z m-2510 163 c-3 -13 0 -26 5 -30 5 -3 187 -11 403 -17 628
-17 693 -22 771 -51 166 -62 261 -165 293 -314 27 -128 16 -256 -30 -350 -28
-56 -132 -167 -186 -198 -25 -15 -17 -4 29 39 113 105 172 232 172 376 0 185
-73 315 -219 388 -131 66 -228 76 -871 87 -381 6 -400 9 -400 58 0 25 7 36 25
36 7 0 10 -9 8 -24z m-2730 -42 c-16 -24 -18 -55 -21 -227 -4 -228 -1 -255 35
-298 49 -58 60 -60 441 -60 273 -1 342 -3 322 -12 -18 -9 -127 -12 -367 -12
-384 1 -360 -4 -427 79 l-31 38 0 240 0 240 29 24 c35 31 44 25 19 -12z m2961
-561 c271 -4 431 -10 421 -15 -21 -13 -114 -13 -777 -4 -315 5 -568 12 -568
17 0 11 325 11 924 2z m-892 -212 l3 -170 295 -6 c350 -8 275 -8 945 -1 404 5
534 3 515 -5 -17 -8 -192 -13 -555 -15 -830 -7 -1219 -4 -1227 10 -4 6 -8 89
-8 184 0 145 2 172 15 172 12 0 15 -28 17 -169z"/>
<path d="M9170 3989 c-262 -8 -294 -16 -382 -101 -96 -94 -117 -190 -117 -528
0 -129 4 -300 8 -380 7 -126 11 -151 34 -195 48 -95 140 -161 287 -206 l74
-22 726 6 c781 8 802 9 880 61 51 34 125 128 146 186 10 27 18 91 21 161 l5
116 -253 6 c-140 4 -264 4 -277 1 -13 -4 -31 -23 -42 -45 -22 -42 -77 -83
-160 -119 -54 -23 -60 -24 -352 -22 -332 2 -403 9 -458 47 -67 47 -75 80 -75
320 0 193 2 213 20 245 25 43 133 103 214 119 32 7 179 11 363 11 308 0 309 0
357 -25 57 -29 87 -63 101 -116 l11 -39 275 0 276 0 -3 118 c-4 103 -7 124
-31 173 -51 103 -167 193 -283 219 -56 13 -1017 19 -1365 9z"/>
<path d="M8651 3728 c-31 -98 -38 -324 -22 -723 7 -177 9 -193 33 -241 15 -27
46 -69 69 -92 41 -39 135 -92 189 -106 14 -4 -4 7 -40 25 -75 37 -176 133
-204 194 -15 31 -21 79 -28 235 -12 243 -5 641 11 693 7 22 10 41 8 44 -3 2
-10 -11 -16 -29z"/>
</g>
</svg>
