<?xml version="1.0" standalone="no"?>
<!DOCTYPE svg PUBLIC "-//W3C//DTD SVG 20010904//EN"
 "http://www.w3.org/TR/2001/REC-SVG-20010904/DTD/svg10.dtd">
<svg version="1.0" xmlns="http://www.w3.org/2000/svg"
 width="300.000000pt" height="172.000000pt" viewBox="0 0 300.000000 172.000000"
 preserveAspectRatio="xMidYMid meet">
<metadata>
Created by potrace 1.10, written by Peter Selinger 2001-2011
</metadata>
<g transform="translate(0.000000,172.000000) scale(0.100000,-0.100000)"
fill="#945cc1" stroke="none">
<path d="M1693 1072 c-213 -3 -199 13 -201 -236 -1 -245 -28 -225 290 -221
182 2 249 7 268 17 102 55 115 81 113 215 -1 57 -4 113 -8 125 -6 22 -6 22 9
4 13 -15 16 -46 16 -139 0 -76 4 -116 10 -112 6 3 10 -3 10 -15 0 -19 39 -61
78 -84 12 -7 382 -13 402 -6 3 1 14 3 25 5 84 16 145 73 145 136 0 21 1 42 2
47 2 4 -13 15 -32 24 -19 9 -29 17 -22 18 29 1 49 36 55 95 4 39 3 54 -3 45
-8 -12 -10 -11 -10 6 0 17 -49 73 -57 66 -2 -1 -11 -2 -20 -1 -17 0 -17 1 -1
7 10 4 -83 6 -205 4 -142 -2 -233 -7 -252 -15 -16 -6 -35 -12 -41 -13 -17 -3
-64 -53 -64 -69 0 -23 -15 -18 -30 10 -7 14 -15 23 -17 21 -2 -2 -17 9 -34 25
-17 16 -45 31 -62 34 -46 8 -178 10 -364 7z m386 -35 c53 -27 63 -56 65 -180
1 -129 -8 -152 -75 -192 -31 -18 -54 -20 -291 -22 l-258 -2 0 194 c0 174 2
195 18 204 26 16 511 14 541 -2z m720 -21 c35 -34 54 -112 30 -127 -8 -5 -55
-9 -105 -9 -83 0 -92 2 -97 20 -3 13 -1 18 5 13 6 -3 8 -2 5 3 -7 12 -146 18
-187 9 -29 -6 -30 -8 -30 -69 0 -35 5 -67 12 -74 8 -8 45 -12 101 -12 83 0 90
2 109 25 19 25 24 26 107 23 l86 -3 -2 -42 c-1 -23 -9 -53 -18 -66 -29 -45
-67 -55 -256 -62 -216 -9 -270 -3 -313 35 -31 28 -31 29 -34 142 -3 133 9 169
73 205 39 23 47 23 262 21 l222 -3 30 -29z m-228 -115 c7 11 14 7 35 -16 14
-16 32 -29 39 -27 7 1 15 -4 19 -13 3 -10 -1 -15 -13 -15 -10 0 -26 -8 -35
-19 -13 -14 -32 -19 -84 -20 -37 0 -73 3 -81 8 -15 10 -18 78 -4 92 11 11 107
16 112 5 2 -4 7 -2 12 5z"/>
<path d="M1560 850 l0 -180 249 0 249 0 27 32 c28 33 28 34 22 147 -3 62 -10
118 -16 124 -18 18 -12 28 9 15 11 -7 18 -19 15 -25 -2 -7 0 -13 5 -13 15 0
12 23 -6 48 -11 16 -19 20 -27 13 -8 -6 -21 -5 -37 4 -19 11 -79 14 -257 15
l-233 0 0 -180z m491 135 l29 -16 0 -121 c0 -168 18 -158 -272 -158 l-228 0 0
154 0 153 221 2 c179 0 226 -2 250 -14z"/>
<path d="M1591 964 c0 -11 3 -14 6 -6 3 7 2 16 -1 19 -3 4 -6 -2 -5 -13z"/>
<path d="M1681 949 c-18 -19 -21 -35 -21 -106 0 -118 8 -125 146 -124 92 0
108 3 143 25 44 28 54 54 50 132 -5 91 -5 92 -161 93 -129 2 -137 1 -157 -20z
m281 -16 c14 -12 18 -31 18 -78 0 -92 -11 -99 -164 -103 l-123 -4 -6 89 c-8
113 -9 113 142 113 92 0 118 -3 133 -17z"/>
<path d="M1724 875 c3 -27 6 -63 6 -78 l0 -28 103 3 102 3 0 72 c0 39 3 69 7
67 4 -2 9 -1 11 3 3 5 -49 8 -115 8 l-120 0 6 -50z m180 19 c11 -4 16 -19 16
-49 0 -30 -5 -45 -16 -49 -20 -8 -93 -8 -131 0 -27 5 -29 9 -30 55 l-1 49 73
0 c41 0 80 -3 89 -6z"/>
<path d="M1955 901 c-3 -5 -1 -12 5 -16 5 -3 10 1 10 9 0 18 -6 21 -15 7z"/>
<path d="M1621 814 c0 -11 3 -14 6 -6 3 7 2 16 -1 19 -3 4 -6 -2 -5 -13z"/>
<path d="M1591 764 c0 -11 3 -14 6 -6 3 7 2 16 -1 19 -3 4 -6 -2 -5 -13z"/>
<path d="M1543 950 c0 -41 2 -58 4 -37 2 20 2 54 0 75 -2 20 -4 3 -4 -38z"/>
<path d="M1543 795 c0 -27 2 -38 4 -22 2 15 2 37 0 50 -2 12 -4 0 -4 -28z"/>
<path d="M1541 674 c0 -11 3 -14 6 -6 3 7 2 16 -1 19 -3 4 -6 -2 -5 -13z"/>
<path d="M2283 1006 c-27 -24 -28 -27 -31 -140 -3 -90 0 -122 12 -147 12 -24
12 -28 2 -20 -10 8 -16 9 -21 1 -6 -10 -4 -12 30 -14 11 -1 37 -7 59 -15 30
-10 80 -12 232 -6 218 8 218 8 233 88 l8 47 -64 0 c-55 0 -70 -4 -95 -25 -27
-23 -37 -25 -137 -25 -70 0 -111 4 -119 12 -13 13 -16 126 -4 145 16 26 82 43
162 43 73 0 83 -2 106 -25 21 -21 34 -25 89 -25 57 0 63 2 58 19 -3 10 0 30 7
42 11 23 10 23 -4 5 -14 -17 -16 -17 -16 -3 0 9 -15 27 -33 41 -34 26 -34 26
-240 26 -203 0 -206 0 -234 -24z m62 -5 c-3 -5 -1 -12 4 -15 5 -3 12 1 15 10
4 11 10 13 19 6 7 -5 80 -9 177 -7 l165 2 28 -31 c20 -22 24 -32 15 -38 -24
-15 -64 -8 -98 17 -30 22 -44 25 -115 25 -143 0 -215 -42 -215 -125 0 -41 15
-74 42 -94 11 -7 17 -18 15 -25 -6 -16 191 -20 212 -4 35 28 63 38 104 38 24
0 46 -3 49 -6 3 -3 -1 -18 -9 -35 -14 -29 -15 -29 -106 -30 -157 -2 -311 2
-329 7 -21 6 -52 64 -35 65 8 0 8 2 0 6 -16 6 -18 143 -2 143 6 0 7 5 2 13
-13 20 -12 37 2 37 8 0 11 7 8 20 -6 22 12 28 20 8 3 -8 6 -6 6 5 1 9 8 17 17
17 8 0 13 -4 9 -9z m228 -278 c-7 -2 -19 -2 -25 0 -7 3 -2 5 12 5 14 0 19 -2
13 -5z"/>
<path d="M2776 1012 c-3 -6 1 -15 8 -21 8 -7 17 -8 20 -3 3 6 -1 15 -8 21 -8
7 -17 8 -20 3z"/>
<path d="M2643 908 c-2 -16 1 -18 10 -9 7 7 8 14 1 21 -6 6 -10 2 -11 -12z"/>
<path d="M2223 770 c0 -25 2 -35 4 -22 2 12 2 32 0 45 -2 12 -4 2 -4 -23z"/>
<path d="M242 1048 c-54 -20 -102 -67 -102 -99 0 -11 -3 -18 -7 -16 -14 9 -15
-143 -1 -196 9 -37 24 -63 52 -89 l38 -38 232 0 232 0 41 27 c23 14 47 37 54
49 6 13 16 21 21 18 4 -3 8 58 8 136 0 92 -4 139 -10 135 -5 -3 -10 1 -10 9 0
21 -46 54 -91 66 -21 6 -121 12 -222 14 -162 3 -190 1 -235 -16z m459 -18 c19
-6 46 -22 60 -36 22 -23 24 -35 27 -133 4 -133 -8 -170 -67 -200 -37 -19 -58
-21 -263 -21 -203 0 -226 2 -255 20 -43 26 -57 79 -51 197 9 167 36 182 318
183 107 0 211 -5 231 -10z"/>
<path d="M259 1013 c-55 -8 -64 -33 -64 -167 0 -66 4 -130 9 -140 7 -15 6 -18
-5 -11 -11 6 -12 5 -2 -5 7 -8 23 -16 35 -18 40 -7 422 -14 455 -7 50 9 63 44
63 164 0 179 0 179 -265 184 -110 2 -212 2 -226 0z m443 -50 c15 -13 17 -33
15 -133 -1 -83 -6 -122 -16 -134 -12 -15 -38 -16 -232 -14 -193 3 -220 5 -236
21 -14 14 -18 39 -21 126 -5 129 2 147 54 149 20 1 38 3 40 4 1 2 87 2 191 0
153 -3 191 -6 205 -19z"/>
<path d="M361 953 c-34 -14 -55 -48 -59 -99 -6 -66 1 -94 31 -126 22 -23 31
-26 114 -27 84 -2 143 11 143 30 0 4 9 11 20 14 11 3 20 13 20 21 0 8 5 12 10
9 6 -4 10 20 10 63 0 53 -4 71 -15 76 -8 3 -15 12 -15 20 0 7 -10 16 -22 20
-28 7 -218 7 -237 -1z m241 -30 c14 -12 18 -31 18 -77 0 -34 -4 -66 -8 -72
-19 -29 -73 -44 -162 -44 -114 0 -130 12 -130 98 0 94 25 111 164 112 79 0
103 -3 118 -17z"/>
<path d="M367 913 c-12 -11 -8 -128 5 -141 8 -8 47 -12 110 -12 l98 0 0 70 c0
58 -3 71 -19 80 -22 11 -184 14 -194 3z m181 -27 c10 -6 10 -28 3 -94 -1 -10
-22 -12 -83 -10 l-83 3 -3 34 c-7 72 -1 78 81 76 41 -1 79 -5 85 -9z"/>
<path d="M593 905 c0 -8 4 -15 9 -15 4 0 8 4 8 9 0 6 -4 12 -8 15 -5 3 -9 -1
-9 -9z"/>
<path d="M343 835 c0 -33 2 -45 4 -27 2 18 2 45 0 60 -2 15 -4 0 -4 -33z"/>
<path d="M603 830 c0 -25 2 -35 4 -22 2 12 2 32 0 45 -2 12 -4 2 -4 -23z"/>
<path d="M670 940 c0 -5 5 -10 10 -10 6 0 10 5 10 10 0 6 -4 10 -10 10 -5 0
-10 -4 -10 -10z"/>
<path d="M675 720 c-3 -5 -1 -10 4 -10 6 0 11 5 11 10 0 6 -2 10 -4 10 -3 0
-8 -4 -11 -10z"/>
<path d="M730 1006 c0 -2 8 -10 18 -17 15 -13 16 -12 3 4 -13 16 -21 21 -21
13z"/>
<path d="M173 835 c0 -44 2 -61 4 -37 2 23 2 59 0 80 -2 20 -4 1 -4 -43z"/>
<path d="M175 720 c-3 -5 -1 -10 4 -10 6 0 11 5 11 10 0 6 -2 10 -4 10 -3 0
-8 -4 -11 -10z"/>
<path d="M960 1048 c-17 -10 -35 -16 -39 -13 -5 2 -27 -12 -50 -33 -32 -29
-41 -45 -42 -72 -3 -65 1 -79 32 -114 l30 -35 -31 -16 c-29 -15 -31 -18 -26
-64 8 -93 -4 -89 265 -87 227 2 238 3 281 25 56 30 86 61 95 101 10 46 -4 108
-31 135 -24 24 -24 25 -6 54 30 49 16 130 -21 132 -12 0 -113 2 -224 3 -183 3
-206 1 -233 -16z m468 -61 c4 -68 11 -66 -211 -67 -92 -1 -167 -5 -167 -8 0
-4 71 -7 158 -7 176 0 208 -9 238 -67 22 -43 14 -111 -17 -144 -46 -50 -73
-54 -330 -54 l-239 0 0 60 c0 77 18 79 23 3 l3 -58 2 64 2 64 175 -7 c128 -6
175 -4 175 4 0 6 4 9 9 5 5 -3 12 -2 14 2 3 5 -53 6 -125 4 -167 -4 -214 3
-249 38 -57 58 -42 153 31 196 30 17 58 21 210 25 96 3 202 4 235 3 l60 -2 3
-54z"/>
<path d="M1400 984 c0 -27 4 -43 10 -39 6 3 10 24 10 46 0 21 -4 39 -10 39 -5
0 -10 -21 -10 -46z"/>
<path d="M945 1006 c-71 -31 -72 -144 -2 -179 23 -12 70 -17 175 -20 158 -4
186 -13 142 -47 -22 -18 -43 -20 -192 -20 l-168 0 0 -39 0 -39 238 4 237 4 23
25 c27 31 30 99 6 133 -29 42 -62 51 -210 53 -129 1 -164 8 -164 30 0 23 62
32 208 30 l152 -2 0 40 0 41 -207 0 c-149 -1 -217 -4 -238 -14z m415 -33 c0
-8 -38 -12 -132 -12 -167 -1 -192 -6 -207 -37 -10 -22 -8 -28 15 -50 25 -22
33 -24 93 -19 36 3 87 1 114 -4 28 -5 47 -5 47 1 0 5 9 4 20 -2 11 -6 24 -9
29 -6 5 3 21 -6 35 -21 18 -18 23 -29 15 -33 -8 -6 -8 -9 1 -15 9 -6 9 -10 -1
-16 -11 -7 -11 -9 -1 -9 10 0 10 -4 0 -22 -25 -42 -28 -43 -228 -46 -201 -2
-240 1 -240 19 0 6 57 9 157 8 107 0 159 3 161 10 2 6 17 18 33 26 16 9 29 24
29 34 0 38 -26 45 -184 49 -131 4 -156 7 -177 23 -13 11 -19 18 -14 17 6 -2
11 2 12 7 1 6 -5 9 -13 7 -28 -6 -12 89 18 109 5 3 97 4 204 1 159 -3 194 -2
194 9 0 11 2 11 10 -1 5 -8 10 -20 10 -27z"/>
<path d="M1340 810 c0 -5 5 -10 11 -10 5 0 7 5 4 10 -3 6 -8 10 -11 10 -2 0
-4 -4 -4 -10z"/>
<path d="M1295 720 c-3 -5 -1 -10 4 -10 6 0 11 5 11 10 0 6 -2 10 -4 10 -3 0
-8 -4 -11 -10z"/>
<path d="M871 907 c-1 -41 3 -53 28 -78 16 -16 34 -29 40 -29 6 0 -2 12 -19
28 -23 20 -33 40 -39 77 l-9 50 -1 -48z"/>
<path d="M1381 867 c42 -28 62 -81 49 -128 -7 -22 -6 -29 1 -22 16 16 22 75
10 105 -6 16 -25 37 -43 48 -45 27 -59 25 -17 -3z"/>
<path d="M2872 935 c0 -16 2 -22 5 -12 2 9 2 23 0 30 -3 6 -5 -1 -5 -18z"/>
<path d="M2873 765 c0 -22 2 -30 4 -17 2 12 2 30 0 40 -3 9 -5 -1 -4 -23z"/>
</g>
</svg>
