 <svg  version="1.0" xmlns="http://www.w3.org/2000/svg"  width="300.000000pt" height="172.000000pt" viewBox="0 0 300.000000 172.000000"  preserveAspectRatio="xMidYMid meet">  <g transform="translate(0.000000,172.000000) scale(0.100000,-0.100000)" fill="#7b22aa" stroke="none"> <path d="M1608 1073 c-69 -3 -79 -7 -98 -30 -17 -22 -20 -41 -21 -147 -1 -110 -2 -117 -12 -79 -7 23 -21 51 -31 62 -17 19 -18 24 -6 47 20 36 16 112 -7 130 -14 10 -65 13 -228 14 -193 0 -213 -2 -243 -20 -18 -11 -39 -20 -46 -20 -21 0 -76 -49 -88 -79 l-11 -26 -8 35 c-20 89 -100 113 -364 108 -169 -3 -183 -5 -230 -28 -65 -32 -87 -76 -93 -182 -7 -118 17 -191 75 -229 25 -17 51 -19 256 -19 252 0 272 4 329 69 25 27 28 39 30 111 1 44 6 80 10 80 4 0 8 -5 8 -11 0 -6 9 -24 20 -39 21 -29 19 -55 -6 -64 -20 -8 -18 -81 3 -117 l17 -29 227 0 c215 0 230 1 276 23 75 35 93 52 108 98 l14 44 0 -62 c1 -55 4 -64 28 -83 27 -21 34 -21 268 -18 239 4 240 4 291 31 57 32 82 68 94 135 l8 47 1 -57 c0 -32 6 -58 11 -58 6 0 10 -5 10 -10 0 -14 36 -49 73 -73 26 -17 48 -18 235 -14 185 3 212 6 253 25 25 12 54 31 64 42 26 29 37 118 18 148 -10 17 -11 27 -4 36 6 7 13 39 15 71 4 53 2 60 -27 91 -16 19 -36 34 -44 34 -7 0 -13 4 -13 8 0 5 -96 7 -214 6 -167 -1 -225 -5 -264 -18 -49 -17 -92 -54 -92 -80 0 -8 -5 -16 -10 -18 -6 -2 -11 -20 -12 -41 -2 -52 -16 -25 -19 37 -2 38 -9 55 -32 77 -16 16 -35 29 -43 29 -9 0 -13 4 -10 8 5 8 -315 11 -466 5z m-178 -84 c0 -70 7 -68 -205 -71 l-160 -2 150 -5 c163 -6 206 -20 232 -72 22 -42 16 -104 -13 -139 -49 -58 -60 -60 -329 -60 l-245 0 0 60 0 59 36 7 c20 4 106 4 190 0 107 -5 154 -4 154 3 0 7 -45 11 -132 11 -150 0 -194 9 -229 46 -19 20 -24 36 -24 79 0 45 4 58 28 83 47 49 91 57 331 58 l216 1 0 -58z m677 28 l36 -33 1 -126 c1 -121 0 -127 -24 -153 -54 -60 -81 -65 -352 -65 l-248 0 0 199 c0 182 2 200 18 204 9 3 133 5 275 6 l257 1 37 -33z m670 17 c22 -11 32 -22 29 -31 -3 -8 -1 -11 4 -8 12 8 30 -36 30 -75 0 -35 -9 -38 -116 -41 -77 -2 -88 0 -94 16 -9 26 -28 30 -124 27 l-86 -3 0 -63 c0 -35 5 -67 12 -74 8 -8 46 -12 105 -12 75 0 93 3 93 15 0 26 38 36 123 33 l82 -3 -2 -43 c-2 -53 -22 -86 -66 -109 -27 -15 -65 -18 -232 -21 -217 -4 -256 2 -296 44 -22 23 -24 35 -27 137 -3 132 10 169 73 204 38 21 51 23 248 23 173 0 215 -3 244 -16z m-2058 -10 c57 -22 71 -59 71 -181 0 -115 -15 -156 -70 -188 -33 -19 -51 -20 -262 -19 -255 2 -267 4 -295 72 -23 55 -14 243 13 273 45 51 84 59 301 59 162 0 211 -3 242 -16z m1898 -156 l27 -29 -29 -23 c-22 -17 -39 -23 -69 -20 -23 1 -53 3 -67 3 -29 1 -43 28 -33 68 7 26 22 31 91 30 44 0 56 -5 80 -29z"/> <path d="M970 1010 c0 -19 29 -22 205 -24 111 -1 174 -5 173 -11 -2 -6 -50 -10 -118 -11 -162 0 -177 -2 -195 -20 -23 -23 -15 -25 35 -10 32 9 85 12 180 8 l136 -4 1 41 2 41 -210 0 c-137 0 -209 -4 -209 -10z"/> <path d="M927 997 c-46 -34 -43 -122 5 -162 28 -23 37 -25 142 -25 149 0 206 -8 206 -29 0 -32 -48 -41 -217 -41 l-163 0 0 -34 0 -34 78 -4 c42 -2 151 -2 240 0 l164 5 19 31 c23 38 24 94 3 125 -29 41 -72 51 -223 51 -123 0 -141 2 -150 17 -5 10 -12 15 -16 12 -3 -4 5 -19 19 -33 24 -27 27 -27 143 -26 134 2 175 -5 198 -30 22 -25 22 -76 -1 -106 -19 -24 -22 -24 -174 -26 -228 -2 -278 0 -260 12 8 6 74 9 150 8 135 -2 136 -2 173 26 26 20 37 36 35 50 -5 36 -44 46 -180 46 -121 0 -178 10 -178 32 0 5 -6 16 -14 24 -17 16 -12 58 10 92 18 28 14 37 -9 19z"/> <path d="M871 908 c-1 -29 6 -45 27 -66 15 -15 18 -18 8 -5 -11 13 -23 42 -27 66 l-6 42 -2 -37z"/> <path d="M1560 850 l0 -180 241 0 c146 0 248 4 260 10 41 22 52 66 45 177 -10 172 -12 173 -320 173 l-226 0 0 -180z m493 127 c25 -16 25 -19 26 -132 0 -162 12 -155 -265 -155 -213 0 -220 1 -215 33 0 4 -4 7 -9 7 -7 0 -10 42 -9 115 0 65 5 113 10 109 5 -3 9 3 9 14 0 10 3 22 6 25 4 4 100 5 214 4 174 -2 211 -5 233 -20z"/> <path d="M1725 972 c-53 -6 -65 -30 -65 -127 0 -119 10 -128 139 -128 162 -1 220 43 206 157 -11 86 -23 94 -145 98 -58 2 -118 1 -135 0z m239 -38 c22 -22 22 -136 0 -158 -23 -24 -48 -27 -167 -24 l-109 3 -4 85 c-7 110 -7 110 147 110 94 0 121 -3 133 -16z"/> <path d="M1724 883 c3 -21 6 -55 6 -76 l0 -38 103 3 102 3 0 70 0 70 -109 3 -109 3 7 -38z m179 5 c14 -7 17 -19 15 -46 l-3 -37 -70 -3 c-57 -2 -72 0 -82 14 -16 23 -17 56 -1 72 15 15 113 14 141 0z"/> <path d="M2300 1017 c-43 -22 -51 -51 -46 -177 5 -122 8 -152 14 -145 3 2 18 -3 35 -11 24 -13 68 -16 229 -16 109 1 208 4 218 7 11 4 27 19 35 35 16 31 20 79 8 81 -40 5 -123 4 -123 -3 0 -4 -13 -14 -30 -23 -40 -21 -232 -21 -249 -1 -7 9 -11 41 -9 83 3 67 4 68 38 85 45 22 212 25 229 5 6 -8 7 -18 3 -22 -4 -5 -1 -5 6 -1 6 4 12 2 12 -3 0 -7 26 -11 65 -11 59 0 65 2 65 20 0 36 -28 77 -64 94 -28 13 -69 16 -223 16 -131 0 -196 -4 -213 -13z m433 -36 c28 -11 31 -18 21 -45 -7 -19 -48 -12 -83 16 -19 14 -41 18 -115 18 -117 0 -159 -12 -191 -54 -23 -31 -25 -40 -19 -87 5 -36 15 -61 31 -77 13 -13 21 -26 19 -30 -4 -8 -3 -8 122 -13 52 -2 86 1 90 8 11 17 82 43 118 43 38 0 43 -13 18 -48 -15 -21 -20 -22 -211 -22 l-196 0 -28 30 c-22 23 -29 40 -30 72 -2 91 3 153 13 165 5 7 6 18 2 24 -4 7 -3 9 2 6 6 -3 15 -3 21 1 18 11 385 5 416 -7z"/> <path d="M220 990 c-28 -28 -32 -55 -28 -169 3 -94 5 -102 31 -128 l27 -28 220 -3 220 -3 30 30 c30 29 30 31 30 136 0 118 -13 159 -56 175 -14 6 -122 10 -240 10 -200 0 -215 -1 -234 -20z m282 -10 c133 -1 181 -5 196 -16 17 -12 20 -26 21 -113 2 -129 -3 -149 -42 -159 -52 -13 -410 -9 -415 6 -2 7 -9 9 -14 6 -6 -4 -8 -2 -5 3 4 6 -1 18 -11 26 -15 14 -17 31 -16 104 4 129 7 137 55 141 18 1 35 5 37 7 3 2 8 3 12 0 4 -2 86 -5 182 -5z"/> <path d="M393 959 c-25 -3 -53 -15 -68 -29 -24 -22 -26 -31 -24 -100 3 -110 16 -124 126 -129 46 -1 99 0 117 3 36 7 86 44 86 64 0 7 5 10 10 7 6 -4 10 19 10 63 0 59 -3 73 -25 96 -16 17 -35 26 -57 27 -18 0 -56 1 -83 2 -28 1 -69 -1 -92 -4z m211 -35 c17 -16 23 -129 8 -150 -24 -34 -58 -44 -152 -44 -129 0 -140 8 -140 101 0 67 1 70 33 89 43 26 226 30 251 4z"/> <path d="M372 908 c-17 -17 -16 -123 2 -137 9 -8 47 -11 107 -9 l94 3 3 65 c2 52 0 67 -14 77 -23 17 -175 18 -192 1z m173 -29 c6 -4 10 -21 9 -36 -1 -15 -3 -35 -3 -44 -1 -14 -13 -16 -73 -14 -81 3 -96 14 -90 68 l4 34 71 0 c40 0 77 -3 82 -8z"/> </g> </svg> 